PathFileType	4	(X/Y/Z)	/Users/itak/Documents/Research/Walk-IL/dataset/trc/00025_00004.trc
DataRate	CameraRate	NumFrames	NumMarkers	Units	OrigDataRate	OrigDataStartFrame	OrigNumFrames
100.000000	100.000000	4	53	mm	100.000000	752	860
Frame#	Time	RPSI			LPSI			L3			STRN			T10			C7			CLAV			RBAK			LBAK			LSHO			LUPA			LAEL			LAOL			LWTS			LWPS			LFRA			LIFD			LHPS			LHTS			RSHO			RUPA			RAEL			RAOL			RWTS			RWPS			RFRA			RIFD			RHTS			RHPS			RBHD			LFHD			RFHD			LBHD			LHIP			RHIP			RASI			LASI			LKNE			LTHI			LANK			LTIP			LTOE			LMT1			LMT5			LHEE			RKNE			RTHI			RANK			RTIP			RTOE			RMT1			RMT5			RHEE			
		X1	Y1	Z1	X2	Y2	Z2	X3	Y3	Z3	X4	Y4	Z4	X5	Y5	Z5	X6	Y6	Z6	X7	Y7	Z7	X8	Y8	Z8	X9	Y9	Z9	X10	Y10	Z10	X11	Y11	Z11	X12	Y12	Z12	X13	Y13	Z13	X14	Y14	Z14	X15	Y15	Z15	X16	Y16	Z16	X17	Y17	Z17	X18	Y18	Z18	X19	Y19	Z19	X20	Y20	Z20	X21	Y21	Z21	X22	Y22	Z22	X23	Y23	Z23	X24	Y24	Z24	X25	Y25	Z25	X26	Y26	Z26	X27	Y27	Z27	X28	Y28	Z28	X29	Y29	Z29	X30	Y30	Z30	X31	Y31	Z31	X32	Y32	Z32	X33	Y33	Z33	X34	Y34	Z34	X35	Y35	Z35	X36	Y36	Z36	X37	Y37	Z37	X38	Y38	Z38	X39	Y39	Z39	X40	Y40	Z40	X41	Y41	Z41	X42	Y42	Z42	X43	Y43	Z43	X44	Y44	Z44	X45	Y45	Z45	X46	Y46	Z46	X47	Y47	Z47	X48	Y48	Z48	X49	Y49	Z49	X50	Y50	Z50	X51	Y51	Z51	X52	Y52	Z52	X53	Y53	Z53	

753	7.52	-275.6573486328125	1074.296508789062	1105.587890625	-278.7604064941406	1065.339233398438	941.00390625	-284.2554931640625	1128.46240234375	1012.982299804688	-70.84471130371094	1324.5537109375	1026.56494140625	-317.2918701171875	1271.061279296875	1005.253479003906	-271.9217834472656	1539.63916015625	994.2978515625	-114.8662643432617	1449.2685546875	1017.900573730469	-330.4510498046875	1402.563232421875	1071.783935546875	-279.6814880371094	1497.724365234375	896.323974609375	-170.4561157226562	1503.817138671875	833.2745361328125	-193.2808380126953	1378.318603515625	753.33935546875	-190.5372772216797	1161.100463867188	727.4801025390625	-253.0503692626953	1147.353881835938	812.1665649414062	-98.56165313720703	912.7376708984375	791.9496459960938	-170.3388671875	894.3222045898438	742.5174560546875	-173.7032165527344	1045.669799804688	722.6536254882812	-63.43166732788086	731.4421997070312	814.8731079101562	-133.1351776123047	806.0444946289062	747.8075561523438	-71.10400390625	821.2199096679688	781.06591796875	-214.4692993164062	1526.838012695312	1176.442016601562	-237.9348449707031	1458.783569335938	1246.809326171875	-285.4334106445312	1192.343994140625	1269.1962890625	-269.4865112304688	1161.795166015625	1175.156372070312	-169.6956329345703	923.263427734375	1268.756103515625	-245.5077972412109	917.1862182617188	1320.641723632812	-279.1011352539062	1117.127563476562	1288.234375	-171.2812347412109	737.3121337890625	1263.553466796875	-149.8897247314453	812.5294189453125	1292.563720703125	-214.4202728271484	814.6721801757812	1331.16796875	-212.2689361572266	1719.827392578125	932.251708984375	-48.44869613647461	1738.486572265625	1075.350341796875	-37.40659332275391	1735.804321289062	977.32568359375	-222.3951110839844	1721.371215820312	1076.56103515625	-180.554931640625	962.959716796875	829.1639404296875	-160.5921783447266	962.2167358398438	1204.552001953125	-59.48145294189453	996.7756958007812	1131.490966796875	-66.89166259765625	1012.180603027344	895.8953247070312	-145.0529327392578	517.2864379882812	891.979248046875	-165.6067657470703	654.2515258789062	851.8414916992188	-253.3869934082031	41.9221305847168	902.58740234375	-230.7079010009766	287.7443542480469	878.0267944335938	-33.63606262207031	39.65766525268555	968.3427734375	-92.90531158447266	48.37078857421875	984.6632080078125	-128.8372650146484	42.34680557250977	884.7897338867188	-323.1390075683594	49.68210983276367	954.5704956054688	-168.5197448730469	526.9110107421875	1153.083251953125	-143.0874786376953	794.4154663085938	1200.221313476562	-287.8109436035156	47.47860336303711	1113.837036132812	-197.1902770996094	405.2550964355469	1150.249145507812	-51.38509368896484	46.59749221801758	1112.143676757812	-108.4057846069336	52.97550582885742	1072.997314453125	-144.7358093261719	44.66938400268555	1163.195068359375	-333.3878173828125	48.86528015136719	1060.403686523438	
754	7.53	-275.7823791503906	1074.208251953125	1105.277709960938	-278.9005126953125	1065.195434570312	940.7216796875	-284.349609375	1128.33984375	1012.6962890625	-71.02640533447266	1324.530517578125	1026.149169921875	-317.448974609375	1270.975463867188	1004.904357910156	-272.1634521484375	1539.572265625	993.9933471679688	-114.9841995239258	1449.253173828125	1017.523071289062	-330.5701293945312	1402.444580078125	1071.47900390625	-279.9264221191406	1497.67626953125	896.0242309570312	-170.7326049804688	1503.84375	832.9310913085938	-193.4061584472656	1378.275512695312	753.0171508789062	-190.36767578125	1160.982055664062	727.3857421875	-252.8455047607422	1147.27685546875	812.141845703125	-98.63249206542969	912.4855346679688	791.77685546875	-170.4621276855469	894.1743774414062	742.4894409179688	-173.6780395507812	1045.534301757812	722.5787963867188	-63.74758911132812	731.1083374023438	814.605224609375	-133.4447631835938	805.827880859375	747.6470947265625	-71.30457305908203	820.9318237304688	780.8350830078125	-214.5954742431641	1526.735717773438	1176.224365234375	-238.0365600585938	1458.572265625	1246.505004882812	-285.3516540527344	1192.084716796875	1268.286010742188	-269.3133850097656	1161.672973632812	1174.270263671875	-172.3679962158203	921.8817749023438	1267.751831054688	-248.1701354980469	916.8865356445312	1319.585205078125	-279.5143737792969	1116.90673828125	1287.191650390625	-176.2753143310547	735.9929809570312	1262.476440429688	-154.0055847167969	810.8192749023438	1291.495483398438	-218.5028533935547	813.8547973632812	1330.080932617188	-213.8139190673828	1719.588745117188	932.1434326171875	-49.55170822143555	1739.155029296875	1074.610473632812	-38.81674575805664	1736.564208984375	976.5335693359375	-223.3970184326172	1721.027954101562	1076.472778320312	-180.7838592529297	962.8427124023438	828.8931884765625	-160.6229858398438	962.2860107421875	1204.234741210938	-59.35772323608398	996.8670043945312	1131.1650390625	-67.13130187988281	1012.111999511719	895.5694580078125	-145.9801483154297	517.24169921875	891.9523315429688	-166.2115631103516	654.1778564453125	851.6824951171875	-253.3869018554688	41.88475799560547	902.5493774414062	-231.2077331542969	287.7168579101562	877.7703857421875	-33.66895294189453	39.67539596557617	968.3590087890625	-92.93399047851562	48.36233139038086	984.7140502929688	-128.8477020263672	42.36167907714844	884.8351440429688	-323.1586608886719	49.64002227783203	954.5028076171875	-168.0292053222656	526.9686889648438	1153.081665039062	-142.8697052001953	794.4578247070312	1200.089111328125	-287.7981262207031	47.48541641235352	1113.851928710938	-196.7615203857422	405.20361328125	1150.190063476562	-51.35402679443359	46.59481811523438	1112.178588867188	-108.3642349243164	52.96332550048828	1072.9892578125	-144.7154541015625	44.67837524414062	1163.165283203125	-333.3752136230469	48.89398956298828	1060.43017578125	
755	7.54	-275.894775390625	1074.117797851562	1104.993896484375	-279.0534362792969	1065.047241210938	940.4747314453125	-284.4574279785156	1128.228393554688	1012.434875488281	-71.23455810546875	1324.506103515625	1025.7353515625	-317.5907592773438	1270.901611328125	1004.584594726562	-272.3941955566406	1539.51953125	993.6838989257812	-115.0899047851562	1449.23046875	1017.153442382812	-330.709716796875	1402.3408203125	1071.150512695312	-280.1654052734375	1497.628051757812	895.7225952148438	-170.9862213134766	1503.853759765625	832.591064453125	-193.5202178955078	1378.22265625	752.69677734375	-190.2060241699219	1160.8486328125	727.2855834960938	-252.6633453369141	1147.194580078125	812.0965576171875	-98.74153900146484	912.2240600585938	791.6305541992188	-170.6051177978516	894.0177001953125	742.4763793945312	-173.6596527099609	1045.391235351562	722.5136108398438	-64.09439849853516	730.7742919921875	814.3914184570312	-133.7795867919922	805.5982666015625	747.5256958007812	-71.54949951171875	820.62060546875	780.6574096679688	-214.7147521972656	1526.639038085938	1176.003173828125	-238.1378784179688	1458.370361328125	1246.189453125	-285.3581237792969	1191.856811523438	1267.414916992188	-269.2445373535156	1161.580932617188	1173.416259765625	-174.9217071533203	920.6454467773438	1266.726196289062	-250.6528472900391	916.6414184570312	1318.557373046875	-279.9665222167969	1116.732666015625	1286.207397460938	-180.8826293945312	734.8596801757812	1261.386474609375	-157.84130859375	809.3211669921875	1290.388427734375	-222.2785186767578	813.1511840820312	1328.984008789062	-215.2800140380859	1719.335571289062	932.0250854492188	-50.61397552490234	1739.79931640625	1073.890991210938	-40.16599273681641	1737.298583984375	975.7684936523438	-224.3587036132812	1720.67333984375	1076.364135742188	-181.0781097412109	962.722412109375	828.6110229492188	-160.6378021240234	962.3494873046875	1203.897827148438	-59.21488952636719	996.9644775390625	1130.820068359375	-67.40633392333984	1012.044738769531	895.209716796875	-146.810546875	517.2040405273438	891.9258422851562	-166.7867736816406	654.112060546875	851.5314331054688	-253.3911437988281	41.85149765014648	902.5136108398438	-231.6717376708984	287.6903076171875	877.5259399414062	-33.70476913452148	39.69454193115234	968.3722534179688	-92.96267700195312	48.35407257080078	984.7620849609375	-128.8587799072266	42.37455368041992	884.877685546875	-323.1686706542969	49.59644317626953	954.4552001953125	-167.6053314208984	527.0116577148438	1153.042358398438	-142.7035217285156	794.4893798828125	1199.932006835938	-287.78466796875	47.49524307250977	1113.857299804688	-196.3736419677734	405.1484375	1150.116333007812	-51.32454681396484	46.59383010864258	1112.20703125	-108.3259124755859	52.9450798034668	1072.980590820312	-144.6928558349609	44.68737030029297	1163.130737304688	-333.3736572265625	48.91382217407227	1060.44482421875	
756	7.55	-275.9925537109375	1074.033935546875	1104.731201171875	-279.2229919433594	1064.901489257812	940.2530517578125	-284.5791625976562	1128.129638671875	1012.190307617188	-71.46028137207031	1324.483276367188	1025.318725585938	-317.7141723632812	1270.83740234375	1004.295227050781	-272.6155700683594	1539.4775390625	993.3764038085938	-115.19140625	1449.20166015625	1016.78662109375	-330.8657836914062	1402.250854492188	1070.806518554688	-280.401123046875	1497.57666015625	895.4219970703125	-171.2248229980469	1503.845947265625	832.2535400390625	-193.6320343017578	1378.156982421875	752.3792724609375	-190.0558624267578	1160.699951171875	727.1787719726562	-252.5091705322266	1147.101440429688	812.0225219726562	-98.88629913330078	911.9517822265625	791.5154418945312	-170.7604217529297	893.8507080078125	742.4720458984375	-173.6423187255859	1045.239135742188	722.4570922851562	-64.47010040283203	730.4375	814.2423706054688	-134.1336212158203	805.35888671875	747.4445190429688	-71.83675384521484	820.2827758789062	780.5366821289062	-214.8225402832031	1526.545043945312	1175.773315429688	-238.2307434082031	1458.180419921875	1245.86376953125	-285.4578552246094	1191.66064453125	1266.587158203125	-269.2971801757812	1161.52294921875	1172.590209960938	-177.3238220214844	919.5601806640625	1265.691284179688	-252.9445343017578	916.4308471679688	1317.562255859375	-280.4670104980469	1116.606323242188	1285.283447265625	-185.0644378662109	733.8992919921875	1260.272705078125	-161.3549041748047	808.0375366210938	1289.249389648438	-225.7164611816406	812.5510864257812	1327.876586914062	-216.6624450683594	1719.076416015625	931.8916625976562	-51.63703536987305	1740.420043945312	1073.19677734375	-41.45324325561523	1738.005859375	975.0339965820312	-225.2804260253906	1720.311157226562	1076.235717773438	-181.4228973388672	962.6022338867188	828.3211669921875	-160.6405181884766	962.4043579101562	1203.54345703125	-59.06718063354492	997.066162109375	1130.458740234375	-67.69828796386719	1011.98193359375	894.8143310546875	-147.5330200195312	517.1690063476562	891.887939453125	-167.318359375	654.05322265625	851.3837890625	-253.3992156982422	41.82111740112305	902.4813842773438	-232.0966491699219	287.6629943847656	877.2966918945312	-33.74272155761719	39.71517944335938	968.3814086914062	-92.98950958251953	48.34559631347656	984.8064575195312	-128.8693237304688	42.38688278198242	884.9185791015625	-323.1711120605469	49.55325698852539	954.4253540039062	-167.2504730224609	527.0435180664062	1152.95849609375	-142.5842895507812	794.5107421875	1199.745727539062	-287.7701721191406	47.50847244262695	1113.852905273438	-196.0411529541016	405.0942993164062	1150.0244140625	-51.29568481445312	46.59237289428711	1112.230590820312	-108.2906036376953	52.92308807373047	1072.968505859375	-144.6670227050781	44.69594573974609	1163.096435546875	-333.3833618164062	48.92422485351562	1060.447143554688	
